<svg role="img" viewBox="0 0 12 12" xmlns="http://www.w3.org/2000/svg" fill="none" stroke="currentColor" stroke-width="1" stroke-linecap="round" stroke-linejoin="round">
  <title>External link icon</title>
  <path d="M10.976 1.193A.314.314 0 0 0 10.687 1H6.312a.313.313 0 0 0 0 .625h3.62L5.467 6.091a.313.313 0 0 0 .443.442l4.466-4.466v3.62a.313.313 0 0 0 .625 0V1.313a.328.328 0 0 0-.024-.119z"/>
  <path d="M3.5 1v.625H2.25a.625.625 0 0 0-.625.625v7.5c0 .345.28.625.625.625h7.5c.345 0 .625-.28.625-.625V8.5H11v1.875c0 .345-.28.625-.625.625h-8.75A.625.625 0 0 1 1 10.375v-8.75C1 1.28 1.28 1 1.625 1H3.5z"/>
</svg>
