<svg role="img" viewBox="0 0 46.4 46.4" xmlns="http://www.w3.org/2000/svg">
  <title>Star icon</title>
  <path d="M21.6 2c0.3-0.6 0.9-1 1.6-1 0.7 0 1.3 0.4 1.6 1l5.8 11.7c0.3 0.5 0.8 0.9 1.4 1L44.8 16.6c0.7 0.1 1.2 0.6 1.4 1.2 0.2 0.6 0 1.4-0.5 1.8l-9.3 9.1c-0.4 0.4-0.6 1-0.5 1.6l2.2 12.9c0.1 0.7-0.2 1.4-0.7 1.8 -0.6 0.4-1.3 0.5-1.9 0.1l-11.5-6.1c-0.5-0.3-1.1-0.3-1.7 0l-11.5 6.1c-0.6 0.3-1.3 0.3-1.9-0.1 -0.6-0.4-0.8-1.1-0.7-1.8l2.2-12.9c0.1-0.6-0.1-1.2-0.5-1.6L0.5 19.7c-0.5-0.5-0.7-1.2-0.5-1.8 0.2-0.6 0.8-1.1 1.4-1.2l12.9-1.9c0.6-0.1 1.1-0.5 1.4-1L21.6 2z"/>
</svg>
